<svg width="56" height="66" viewBox="0 0 56 66" fill="none" xmlns="http://www.w3.org/2000/svg">
<g filter="url(#filter0_i_3_28)">
<rect x="30.1693" y="19.5648" width="4.7117" height="14.1281" rx="2.35585" transform="rotate(-180 30.1693 19.5648)" fill="#DED2AA" fill-opacity="0.6"/>
</g>
<rect x="30.6693" y="20.0648" width="5.7117" height="15.1281" rx="2.85585" transform="rotate(-180 30.6693 20.0648)" stroke="#44240B"/>
<g filter="url(#filter1_di_3_28)">
<path d="M38.6709 24.9548L38.9099 31.7845L38.8074 31.7176L38.6026 31.6171H38.1929L37.8856 31.7176L37.6466 31.9185L37.3051 32.1863L37.1003 32.4206L36.7589 32.5211H36.3833L36.1101 32.4206L35.9736 32.1863L35.837 31.9854V31.5502L35.5297 25.6244L35.359 24.8879L35.0859 24.5866L34.6079 24.3187H34.2323H33.8226L33.447 24.5866L33.2421 24.8544C33.1966 24.9325 33.1056 25.1022 33.1056 25.1557C33.1056 25.2093 33.0601 25.4905 33.0373 25.6244L32.9349 26.294L32.8666 28.1019C32.8438 28.2804 32.7983 28.6509 32.7983 28.7045C32.7983 28.7581 32.639 28.95 32.5593 29.0393L32.3544 29.3071L32.0472 29.5749H31.6033H31.296L31.0229 29.441L30.7497 29.2067L30.5107 28.9054L30.2717 28.3362L30.1352 27.7336L29.8962 27.2649C29.7823 27.1756 29.5411 26.9904 29.4864 26.9636C29.4318 26.9368 29.2816 26.8855 29.2133 26.8631L28.7353 26.7962C28.5874 26.8073 28.271 26.8364 28.189 26.8631C28.1071 26.8899 27.9728 27.0082 27.9159 27.064L27.6427 27.2649L27.4379 27.6666L27.3354 28.0014L27.2672 28.4701L26.9599 32.1863L26.8574 33.0902L26.755 33.5589L26.4819 33.9941L26.1405 34.2955L25.799 34.5298L25.3552 34.6302H24.843L24.4333 34.5298L24.0919 34.3624L23.7846 34.1615L23.4773 33.7933L23.2383 33.2576L23.1017 32.2867L22.9993 30.7467L22.7945 27.131L22.7262 26.6623L22.453 26.294L22.1116 25.9927L21.8385 25.8923C21.6564 25.8811 21.2785 25.8655 21.2239 25.8923C21.1693 25.919 20.928 26.015 20.8142 26.0597L20.5069 26.294L20.302 26.7627L20.1996 27.3653L20.0972 28.1019L19.9948 28.9054L19.9265 29.7758L19.824 30.7467C19.8013 30.9141 19.7558 31.2623 19.7558 31.3158C19.7558 31.3694 19.6875 31.4944 19.6533 31.5502C19.5964 31.6283 19.4758 31.7979 19.4485 31.8515C19.4212 31.9051 19.3233 31.9631 19.2778 31.9854L18.9705 32.1863H18.7315H18.4242L18.1169 31.9854L17.9803 31.7845L17.8438 31.5167L17.7413 30.6463V29.8428C17.7186 29.7312 17.673 29.4946 17.673 29.441C17.673 29.3741 17.5023 29.0728 17.5023 29.0393C17.5023 29.0125 17.2747 28.8496 17.1609 28.7714L16.9219 28.7045H16.717L16.8536 25.2896L16.9219 24.687L17.0243 24.0174L17.2292 23.4148L17.5706 22.6448L17.9803 21.9083L18.2876 21.5065L18.7998 20.9374L19.4485 20.5022L20.0972 20.1339L20.8142 19.8326L21.4287 19.5647L22.2482 19.3639L22.8969 19.23L23.5115 19.096L24.1943 19.0626H24.5357L24.7406 18.9621L24.9455 18.7947L24.9796 18.6273L25.0479 17.1877L25.1845 16.8864L25.3893 16.6186L25.6966 16.3843L26.1063 16.2838H26.4819L26.7892 16.3843L27.0964 16.6186L27.2672 16.7525L27.3696 17.0538C27.381 17.1431 27.4174 17.3284 27.472 17.3551C27.5266 17.3819 27.4948 17.7011 27.472 17.8573V18.1586V18.4934C27.472 18.5738 27.5175 18.6608 27.5403 18.6943L27.6427 18.8282L27.8476 18.8952L28.0524 18.9621L28.3597 18.8952L28.5646 18.6943L28.8377 18.326L29.1792 17.9578L29.5889 17.7569H29.9303L30.4083 17.9243L30.7156 18.1586L30.9204 18.4934L31.1253 18.8282L31.3302 19.0626L31.5692 19.163L32.1496 19.23L32.9349 19.3639L33.5494 19.4308L34.2323 19.5647L34.881 19.8326L35.7004 20.2008L36.2126 20.5022L36.7589 20.9374L37.2369 21.4061L37.6124 21.9083L37.8856 22.3435L38.1929 22.9461L38.3636 23.4818L38.5001 24.0509L38.6026 24.4527L38.6709 24.9548Z" fill="#D9D9D9"/>
<path d="M38.6709 24.9548L38.9099 31.7845L38.8074 31.7176L38.6026 31.6171H38.1929L37.8856 31.7176L37.6466 31.9185L37.3051 32.1863L37.1003 32.4206L36.7589 32.5211H36.3833L36.1101 32.4206L35.9736 32.1863L35.837 31.9854V31.5502L35.5297 25.6244L35.359 24.8879L35.0859 24.5866L34.6079 24.3187H34.2323H33.8226L33.447 24.5866L33.2421 24.8544C33.1966 24.9325 33.1056 25.1022 33.1056 25.1557C33.1056 25.2093 33.0601 25.4905 33.0373 25.6244L32.9349 26.294L32.8666 28.1019C32.8438 28.2804 32.7983 28.6509 32.7983 28.7045C32.7983 28.7581 32.639 28.95 32.5593 29.0393L32.3544 29.3071L32.0472 29.5749H31.6033H31.296L31.0229 29.441L30.7497 29.2067L30.5107 28.9054L30.2717 28.3362L30.1352 27.7336L29.8962 27.2649C29.7823 27.1756 29.5411 26.9904 29.4864 26.9636C29.4318 26.9368 29.2816 26.8855 29.2133 26.8631L28.7353 26.7962C28.5874 26.8073 28.271 26.8364 28.189 26.8631C28.1071 26.8899 27.9728 27.0082 27.9159 27.064L27.6427 27.2649L27.4379 27.6666L27.3354 28.0014L27.2672 28.4701L26.9599 32.1863L26.8574 33.0902L26.755 33.5589L26.4819 33.9941L26.1405 34.2955L25.799 34.5298L25.3552 34.6302H24.843L24.4333 34.5298L24.0919 34.3624L23.7846 34.1615L23.4773 33.7933L23.2383 33.2576L23.1017 32.2867L22.9993 30.7467L22.7945 27.131L22.7262 26.6623L22.453 26.294L22.1116 25.9927L21.8385 25.8923C21.6564 25.8811 21.2785 25.8655 21.2239 25.8923C21.1693 25.919 20.928 26.015 20.8142 26.0597L20.5069 26.294L20.302 26.7627L20.1996 27.3653L20.0972 28.1019L19.9948 28.9054L19.9265 29.7758L19.824 30.7467C19.8013 30.9141 19.7558 31.2623 19.7558 31.3158C19.7558 31.3694 19.6875 31.4944 19.6533 31.5502C19.5964 31.6283 19.4758 31.7979 19.4485 31.8515C19.4212 31.9051 19.3233 31.9631 19.2778 31.9854L18.9705 32.1863H18.7315H18.4242L18.1169 31.9854L17.9803 31.7845L17.8438 31.5167L17.7413 30.6463V29.8428C17.7186 29.7312 17.673 29.4946 17.673 29.441C17.673 29.3741 17.5023 29.0728 17.5023 29.0393C17.5023 29.0125 17.2747 28.8496 17.1609 28.7714L16.9219 28.7045H16.717L16.8536 25.2896L16.9219 24.687L17.0243 24.0174L17.2292 23.4148L17.5706 22.6448L17.9803 21.9083L18.2876 21.5065L18.7998 20.9374L19.4485 20.5022L20.0972 20.1339L20.8142 19.8326L21.4287 19.5647L22.2482 19.3639L22.8969 19.23L23.5115 19.096L24.1943 19.0626H24.5357L24.7406 18.9621L24.9455 18.7947L24.9796 18.6273L25.0479 17.1877L25.1845 16.8864L25.3893 16.6186L25.6966 16.3843L26.1063 16.2838H26.4819L26.7892 16.3843L27.0964 16.6186L27.2672 16.7525L27.3696 17.0538C27.381 17.1431 27.4174 17.3284 27.472 17.3551C27.5266 17.3819 27.4948 17.7011 27.472 17.8573V18.1586V18.4934C27.472 18.5738 27.5175 18.6608 27.5403 18.6943L27.6427 18.8282L27.8476 18.8952L28.0524 18.9621L28.3597 18.8952L28.5646 18.6943L28.8377 18.326L29.1792 17.9578L29.5889 17.7569H29.9303L30.4083 17.9243L30.7156 18.1586L30.9204 18.4934L31.1253 18.8282L31.3302 19.0626L31.5692 19.163L32.1496 19.23L32.9349 19.3639L33.5494 19.4308L34.2323 19.5647L34.881 19.8326L35.7004 20.2008L36.2126 20.5022L36.7589 20.9374L37.2369 21.4061L37.6124 21.9083L37.8856 22.3435L38.1929 22.9461L38.3636 23.4818L38.5001 24.0509L38.6026 24.4527L38.6709 24.9548Z" stroke="#44240B"/>
</g>
<g filter="url(#filter2_d_3_28)">
<path d="M39.3537 40.0538L39.0805 50.5997L38.9781 51.8384L38.7733 52.8093L38.3977 53.7467L37.9538 54.4163L37.51 55.0189L36.9637 55.5546L36.1101 56.1907L35.0858 56.7263L33.9591 57.0611L31.535 57.4294L30.1693 57.5633H27.5744H25.4576H24.7747L23.409 57.4294L22.1457 57.262L21.3263 57.0611L20.5069 56.8937L19.8582 56.7263L19.4826 56.492L19.0046 56.1907L18.4925 55.7554L18.0827 55.3537L17.7755 55.0189L17.3657 54.4163L17.0243 53.9811L16.6487 53.2445L16.478 52.8093L16.3073 51.9054V51.0349V50.131L16 29.2067L16.2049 28.8719L16.6829 28.6375H17.0926L17.5023 28.7714L17.7413 29.2067L17.8437 29.3741L17.9462 31.048L18.0486 31.4498L18.1852 31.7511L18.3217 31.9185L18.4583 31.9854H18.6632H18.7997H18.9022H19.0729L19.2436 31.818L19.3119 31.6841L19.4143 31.5502L19.5509 31.3828L19.6192 31.115L20.1313 26.7627L20.2679 26.4279L20.5069 26.0597L20.78 25.8588L21.1214 25.7583L21.5994 25.6579L22.0092 25.7583L22.2823 25.9257L22.5213 26.1601L22.7944 26.4279L22.8969 26.5953L22.9652 27.1979L23.3066 32.4206L23.409 33.2241L23.5797 33.5924L23.887 33.9942L24.0577 34.0611L24.3992 34.3289L24.7406 34.3959L25.0137 34.4629H25.321L25.5941 34.3959L25.7649 34.3289L25.9697 34.2285L26.1746 34.0611L26.3794 33.8602L26.516 33.5924L26.6867 33.2911C26.8233 31.606 27.1033 28.2224 27.1306 28.1688C27.1647 28.1019 27.2671 27.7671 27.2671 27.6666C27.2671 27.5863 27.381 27.4323 27.4379 27.3653L27.6086 27.0975L27.8476 26.7627C28.0069 26.7069 28.3392 26.5953 28.3939 26.5953H28.7011H29.0767L29.4181 26.7627L29.7596 26.9301L29.9986 27.1979L30.2376 27.6666C30.2649 27.7202 30.34 27.9568 30.3741 28.0684L30.5449 28.4701L30.7156 28.7714L30.9204 29.0393L31.1594 29.2067L31.3643 29.3741H31.6716H31.9447L32.1154 29.3071L32.252 29.2067L32.3886 29.0393L32.5251 28.8719L32.6617 28.6375L32.9348 25.1892L33.0373 24.8544L33.2763 24.4861L33.5836 24.2183L34.1298 24.0509L34.5396 24.1179L34.8468 24.2183L35.2224 24.4861L35.4956 24.754L35.6663 25.3901L36.0077 31.9854L36.2467 32.3202L36.4857 32.4206H36.7247L37.032 32.3202L37.2368 32.1193L37.6124 31.818L38.0563 31.5502L38.3635 31.4498L38.8074 31.5502L39.0464 31.6841L39.3537 31.9854L39.4561 32.3202V33.2241L39.3537 40.0538Z" fill="#622B0F"/>
<path d="M39.3537 40.0538L39.0805 50.5997L38.9781 51.8384L38.7733 52.8093L38.3977 53.7467L37.9538 54.4163L37.51 55.0189L36.9637 55.5546L36.1101 56.1907L35.0858 56.7263L33.9591 57.0611L31.535 57.4294L30.1693 57.5633H27.5744H25.4576H24.7747L23.409 57.4294L22.1457 57.262L21.3263 57.0611L20.5069 56.8937L19.8582 56.7263L19.4826 56.492L19.0046 56.1907L18.4925 55.7554L18.0827 55.3537L17.7755 55.0189L17.3657 54.4163L17.0243 53.9811L16.6487 53.2445L16.478 52.8093L16.3073 51.9054V51.0349V50.131L16 29.2067L16.2049 28.8719L16.6829 28.6375H17.0926L17.5023 28.7714L17.7413 29.2067L17.8437 29.3741L17.9462 31.048L18.0486 31.4498L18.1852 31.7511L18.3217 31.9185L18.4583 31.9854H18.6632H18.7997H18.9022H19.0729L19.2436 31.818L19.3119 31.6841L19.4143 31.5502L19.5509 31.3828L19.6192 31.115L20.1313 26.7627L20.2679 26.4279L20.5069 26.0597L20.78 25.8588L21.1214 25.7583L21.5994 25.6579L22.0092 25.7583L22.2823 25.9257L22.5213 26.1601L22.7944 26.4279L22.8969 26.5953L22.9652 27.1979L23.3066 32.4206L23.409 33.2241L23.5797 33.5924L23.887 33.9942L24.0577 34.0611L24.3992 34.3289L24.7406 34.3959L25.0137 34.4629H25.321L25.5941 34.3959L25.7649 34.3289L25.9697 34.2285L26.1746 34.0611L26.3794 33.8602L26.516 33.5924L26.6867 33.2911C26.8233 31.606 27.1033 28.2224 27.1306 28.1688C27.1647 28.1019 27.2671 27.7671 27.2671 27.6666C27.2671 27.5863 27.381 27.4323 27.4379 27.3653L27.6086 27.0975L27.8476 26.7627C28.0069 26.7069 28.3392 26.5953 28.3939 26.5953H28.7011H29.0767L29.4181 26.7627L29.7596 26.9301L29.9986 27.1979L30.2376 27.6666C30.2649 27.7202 30.34 27.9568 30.3741 28.0684L30.5449 28.4701L30.7156 28.7714L30.9204 29.0393L31.1594 29.2067L31.3643 29.3741H31.6716H31.9447L32.1154 29.3071L32.252 29.2067L32.3886 29.0393L32.5251 28.8719L32.6617 28.6375L32.9348 25.1892L33.0373 24.8544L33.2763 24.4861L33.5836 24.2183L34.1298 24.0509L34.5396 24.1179L34.8468 24.2183L35.2224 24.4861L35.4956 24.754L35.6663 25.3901L36.0077 31.9854L36.2467 32.3202L36.4857 32.4206H36.7247L37.032 32.3202L37.2368 32.1193L37.6124 31.818L38.0563 31.5502L38.3635 31.4498L38.8074 31.5502L39.0464 31.6841L39.3537 31.9854L39.4561 32.3202V33.2241L39.3537 40.0538Z" stroke="#44240B" stroke-linejoin="round"/>
</g>
<g filter="url(#filter3_i_3_28)">
<ellipse cx="19.5695" cy="38.0633" rx="1.52975" ry="1.5" fill="#ED64A6"/>
</g>
<path d="M20.9492 38.0633C20.9492 38.8061 20.3343 39.4133 19.5695 39.4133C18.8047 39.4133 18.1897 38.8061 18.1897 38.0633C18.1897 37.3205 18.8047 36.7133 19.5695 36.7133C20.3343 36.7133 20.9492 37.3205 20.9492 38.0633Z" stroke="#2B6CB0" stroke-width="0.3"/>
<g filter="url(#filter4_i_3_28)">
<ellipse cx="24.6686" cy="43.0633" rx="1.52975" ry="1.5" fill="#ED64A6"/>
</g>
<path d="M26.0483 43.0633C26.0483 43.8061 25.4334 44.4133 24.6686 44.4133C23.9038 44.4133 23.2889 43.8061 23.2889 43.0633C23.2889 42.3205 23.9038 41.7133 24.6686 41.7133C25.4334 41.7133 26.0483 42.3205 26.0483 43.0633Z" stroke="#2B6CB0" stroke-width="0.3"/>
<g filter="url(#filter5_i_3_28)">
<ellipse cx="29.7677" cy="48.0633" rx="1.52975" ry="1.5" fill="#ED64A6"/>
</g>
<path d="M31.1475 48.0633C31.1475 48.8061 30.5325 49.4133 29.7677 49.4133C29.0029 49.4133 28.388 48.8061 28.388 48.0633C28.388 47.3205 29.0029 46.7133 29.7677 46.7133C30.5325 46.7133 31.1475 47.3205 31.1475 48.0633Z" stroke="#2B6CB0" stroke-width="0.3"/>
<g filter="url(#filter6_i_3_28)">
<ellipse cx="34.867" cy="51.0633" rx="1.52975" ry="1.5" fill="#ED64A6"/>
</g>
<path d="M36.2467 51.0633C36.2467 51.8061 35.6318 52.4133 34.867 52.4133C34.1022 52.4133 33.4872 51.8061 33.4872 51.0633C33.4872 50.3205 34.1022 49.7133 34.867 49.7133C35.6318 49.7133 36.2467 50.3205 36.2467 51.0633Z" stroke="#2B6CB0" stroke-width="0.3"/>
<g filter="url(#filter7_i_3_28)">
<ellipse cx="20.5893" cy="52.0633" rx="1.52975" ry="1.5" fill="#ED64A6"/>
</g>
<path d="M21.969 52.0633C21.969 52.8061 21.3541 53.4133 20.5893 53.4133C19.8245 53.4133 19.2095 52.8061 19.2095 52.0633C19.2095 51.3205 19.8245 50.7133 20.5893 50.7133C21.3541 50.7133 21.969 51.3205 21.969 52.0633Z" stroke="#2B6CB0" stroke-width="0.3"/>
<defs>
<filter id="filter0_i_3_28" x="24.4576" y="4.43668" width="6.71173" height="20.1281" filterUnits="userSpaceOnUse" color-interpolation-filters="sRGB">
<feFlood flood-opacity="0" result="BackgroundImageFix"/>
<feBlend mode="normal" in="SourceGraphic" in2="BackgroundImageFix" result="shape"/>
<feColorMatrix in="SourceAlpha" type="matrix" values="0 0 0 0 0 0 0 0 0 0 0 0 0 0 0 0 0 0 127 0" result="hardAlpha"/>
<feMorphology radius="10" operator="erode" in="SourceAlpha" result="effect1_innerShadow_3_28"/>
<feOffset dy="4"/>
<feGaussianBlur stdDeviation="2"/>
<feComposite in2="hardAlpha" operator="arithmetic" k2="-1" k3="1"/>
<feColorMatrix type="matrix" values="0 0 0 0 0.847059 0 0 0 0 0.760784 0 0 0 0 0.556863 0 0 0 1 0"/>
<feBlend mode="normal" in2="shape" result="effect1_innerShadow_3_28"/>
</filter>
<filter id="filter1_di_3_28" x="0.196655" y="0.783813" width="55.2466" height="51.3464" filterUnits="userSpaceOnUse" color-interpolation-filters="sRGB">
<feFlood flood-opacity="0" result="BackgroundImageFix"/>
<feColorMatrix in="SourceAlpha" type="matrix" values="0 0 0 0 0 0 0 0 0 0 0 0 0 0 0 0 0 0 127 0" result="hardAlpha"/>
<feOffset dy="1"/>
<feGaussianBlur stdDeviation="8"/>
<feComposite in2="hardAlpha" operator="out"/>
<feColorMatrix type="matrix" values="0 0 0 0 0.639216 0 0 0 0 0.847059 0 0 0 0 0.831373 0 0 0 1 0"/>
<feBlend mode="normal" in2="BackgroundImageFix" result="effect1_dropShadow_3_28"/>
<feBlend mode="normal" in="SourceGraphic" in2="effect1_dropShadow_3_28" result="shape"/>
<feColorMatrix in="SourceAlpha" type="matrix" values="0 0 0 0 0 0 0 0 0 0 0 0 0 0 0 0 0 0 127 0" result="hardAlpha"/>
<feOffset dx="3" dy="20"/>
<feGaussianBlur stdDeviation="2"/>
<feComposite in2="hardAlpha" operator="arithmetic" k2="-1" k3="1"/>
<feColorMatrix type="matrix" values="0 0 0 0 0.639216 0 0 0 0 0.847059 0 0 0 0 0.827451 0 0 0 0.8 0"/>
<feBlend mode="normal" in2="shape" result="effect2_innerShadow_3_28"/>
</filter>
<filter id="filter2_d_3_28" x="11.5" y="22.5509" width="32.4561" height="42.5124" filterUnits="userSpaceOnUse" color-interpolation-filters="sRGB">
<feFlood flood-opacity="0" result="BackgroundImageFix"/>
<feColorMatrix in="SourceAlpha" type="matrix" values="0 0 0 0 0 0 0 0 0 0 0 0 0 0 0 0 0 0 127 0" result="hardAlpha"/>
<feOffset dy="3"/>
<feGaussianBlur stdDeviation="2"/>
<feComposite in2="hardAlpha" operator="out"/>
<feColorMatrix type="matrix" values="0 0 0 0 0.32549 0 0 0 0 0.109804 0 0 0 0 0.00784314 0 0 0 1 0"/>
<feBlend mode="normal" in2="BackgroundImageFix" result="effect1_dropShadow_3_28"/>
<feBlend mode="normal" in="SourceGraphic" in2="effect1_dropShadow_3_28" result="shape"/>
</filter>
<filter id="filter3_i_3_28" x="18.0397" y="36.5633" width="3.05951" height="7" filterUnits="userSpaceOnUse" color-interpolation-filters="sRGB">
<feFlood flood-opacity="0" result="BackgroundImageFix"/>
<feBlend mode="normal" in="SourceGraphic" in2="BackgroundImageFix" result="shape"/>
<feColorMatrix in="SourceAlpha" type="matrix" values="0 0 0 0 0 0 0 0 0 0 0 0 0 0 0 0 0 0 127 0" result="hardAlpha"/>
<feOffset dy="4"/>
<feGaussianBlur stdDeviation="2"/>
<feComposite in2="hardAlpha" operator="arithmetic" k2="-1" k3="1"/>
<feColorMatrix type="matrix" values="0 0 0 0 0.886275 0 0 0 0 0.392157 0 0 0 0 0.431373 0 0 0 1 0"/>
<feBlend mode="normal" in2="shape" result="effect1_innerShadow_3_28"/>
</filter>
<filter id="filter4_i_3_28" x="23.1389" y="41.5633" width="3.05951" height="7" filterUnits="userSpaceOnUse" color-interpolation-filters="sRGB">
<feFlood flood-opacity="0" result="BackgroundImageFix"/>
<feBlend mode="normal" in="SourceGraphic" in2="BackgroundImageFix" result="shape"/>
<feColorMatrix in="SourceAlpha" type="matrix" values="0 0 0 0 0 0 0 0 0 0 0 0 0 0 0 0 0 0 127 0" result="hardAlpha"/>
<feOffset dy="4"/>
<feGaussianBlur stdDeviation="2"/>
<feComposite in2="hardAlpha" operator="arithmetic" k2="-1" k3="1"/>
<feColorMatrix type="matrix" values="0 0 0 0 0.886275 0 0 0 0 0.392157 0 0 0 0 0.431373 0 0 0 1 0"/>
<feBlend mode="normal" in2="shape" result="effect1_innerShadow_3_28"/>
</filter>
<filter id="filter5_i_3_28" x="28.238" y="46.5633" width="3.05951" height="7" filterUnits="userSpaceOnUse" color-interpolation-filters="sRGB">
<feFlood flood-opacity="0" result="BackgroundImageFix"/>
<feBlend mode="normal" in="SourceGraphic" in2="BackgroundImageFix" result="shape"/>
<feColorMatrix in="SourceAlpha" type="matrix" values="0 0 0 0 0 0 0 0 0 0 0 0 0 0 0 0 0 0 127 0" result="hardAlpha"/>
<feOffset dy="4"/>
<feGaussianBlur stdDeviation="2"/>
<feComposite in2="hardAlpha" operator="arithmetic" k2="-1" k3="1"/>
<feColorMatrix type="matrix" values="0 0 0 0 0.886275 0 0 0 0 0.392157 0 0 0 0 0.431373 0 0 0 1 0"/>
<feBlend mode="normal" in2="shape" result="effect1_innerShadow_3_28"/>
</filter>
<filter id="filter6_i_3_28" x="33.3372" y="49.5633" width="3.05951" height="7" filterUnits="userSpaceOnUse" color-interpolation-filters="sRGB">
<feFlood flood-opacity="0" result="BackgroundImageFix"/>
<feBlend mode="normal" in="SourceGraphic" in2="BackgroundImageFix" result="shape"/>
<feColorMatrix in="SourceAlpha" type="matrix" values="0 0 0 0 0 0 0 0 0 0 0 0 0 0 0 0 0 0 127 0" result="hardAlpha"/>
<feOffset dy="4"/>
<feGaussianBlur stdDeviation="2"/>
<feComposite in2="hardAlpha" operator="arithmetic" k2="-1" k3="1"/>
<feColorMatrix type="matrix" values="0 0 0 0 0.886275 0 0 0 0 0.392157 0 0 0 0 0.431373 0 0 0 1 0"/>
<feBlend mode="normal" in2="shape" result="effect1_innerShadow_3_28"/>
</filter>
<filter id="filter7_i_3_28" x="19.0595" y="50.5633" width="3.05951" height="7" filterUnits="userSpaceOnUse" color-interpolation-filters="sRGB">
<feFlood flood-opacity="0" result="BackgroundImageFix"/>
<feBlend mode="normal" in="SourceGraphic" in2="BackgroundImageFix" result="shape"/>
<feColorMatrix in="SourceAlpha" type="matrix" values="0 0 0 0 0 0 0 0 0 0 0 0 0 0 0 0 0 0 127 0" result="hardAlpha"/>
<feOffset dy="4"/>
<feGaussianBlur stdDeviation="2"/>
<feComposite in2="hardAlpha" operator="arithmetic" k2="-1" k3="1"/>
<feColorMatrix type="matrix" values="0 0 0 0 0.886275 0 0 0 0 0.392157 0 0 0 0 0.431373 0 0 0 1 0"/>
<feBlend mode="normal" in2="shape" result="effect1_innerShadow_3_28"/>
</filter>
</defs>
</svg>
